<svg width="167" height="161" fill="none" xmlns="http://www.w3.org/2000/svg"><path fill-rule="evenodd" clip-rule="evenodd" d="M153.746 80.5c0 37.402-31.45 67.722-70.246 67.722-38.796 0-70.246-30.32-70.246-67.722 0-37.402 31.45-67.722 70.246-67.722 38.796 0 70.246 30.32 70.246 67.722zm13.254 0c0 44.459-37.384 80.5-83.5 80.5S0 124.959 0 80.5 37.384 0 83.5 0 167 36.041 167 80.5zM72.896 40.889L58.242 27.938C47.756 32.493 38.919 39.95 32.83 49.246l6.93 13.364-11.654-4.494a54.31 54.31 0 00-4.25 21.106c0 3.514.335 6.953.975 10.289l20.231-3.901L63.62 54.944l-3.977 30.667-25.438 25.591a57.285 57.285 0 009.672 10.42l-.138-.233 14.579-11.5-7.577 16.697c9.071 5.608 19.86 8.859 31.435 8.859 14.368 0 27.523-5.009 37.687-13.315l-8.529-10.964-31.81-3.833 29.159-8.944 1.326-16.611-14.58-31.945L119.285 80.5v16.61l14.325 8.633a54.384 54.384 0 006.882-26.52c0-12.821-4.451-24.64-11.945-34.098l-11.912 14.93 6.113-21.217C112.251 29.034 97.944 23 82.175 23c-.443 0-.885.005-1.326.014V34.5l3.976 6.389-6.627 25.555-5.302-25.555z" fill="#1F2326"/></svg>