<svg width="29" height="31" fill="none" xmlns="http://www.w3.org/2000/svg"><rect x=".5" y=".869" width="27.708" height="29.171" rx="13.854" fill="#F3F3F3"/><g clip-path="url(#clip0_134_221)"><path d="M14.357 12.405c-1.63 0-2.945 1.36-2.945 3.047s1.314 3.047 2.945 3.047c1.63 0 2.945-1.36 2.945-3.047 0-1.686-1.315-3.047-2.945-3.047zm0 5.028c-1.054 0-1.915-.888-1.915-1.98 0-1.093.859-1.982 1.915-1.982s1.914.889 1.914 1.981c0 1.093-.86 1.981-1.914 1.981zm3.752-5.152c0 .395-.307.71-.687.71a.697.697 0 01-.687-.71.7.7 0 01.687-.711.7.7 0 01.687.71zm1.95.72c-.043-.951-.253-1.794-.927-2.489-.672-.695-1.487-.912-2.407-.96-.948-.056-3.79-.056-4.74 0-.917.045-1.732.263-2.406.957-.674.695-.882 1.538-.928 2.49-.054.981-.054 3.922 0 4.903.044.952.254 1.796.928 2.49.674.695 1.486.913 2.407.96.948.056 3.79.056 4.74 0 .92-.045 1.734-.262 2.406-.96.672-.694.882-1.538.928-2.49.054-.98.054-3.919 0-4.9zm-1.224 5.954c-.2.52-.587.92-1.092 1.13-.756.31-2.55.238-3.386.238-.836 0-2.633.07-3.386-.238a1.973 1.973 0 01-1.092-1.13c-.3-.782-.23-2.638-.23-3.503 0-.864-.068-2.723.23-3.503.2-.52.587-.92 1.092-1.13.756-.31 2.55-.238 3.386-.238.835 0 2.632-.069 3.386.239.502.206.89.607 1.092 1.13.3.782.23 2.638.23 3.502 0 .865.07 2.723-.23 3.503z" fill="#000"/></g><rect x=".5" y=".869" width="27.708" height="29.171" rx="13.854" stroke="#F9F9F9"/><defs><clipPath id="clip0_134_221"><path fill="#fff" transform="translate(8.613 8.666)" d="M0 0h11.483v13.577H0z"/></clipPath></defs></svg>