<svg width="29" height="31" fill="none" xmlns="http://www.w3.org/2000/svg"><rect x=".5" y=".869" width="27.708" height="29.171" rx="13.854" fill="#F3F3F3"/><g clip-path="url(#clip0_134_222)"><path d="M10.718 21.113H8.103V12.3h2.615v8.813zM9.41 11.098c-.836 0-1.514-.725-1.514-1.6 0-.42.16-.823.443-1.12.284-.297.67-.464 1.071-.464.402 0 .787.167 1.071.464.284.297.444.7.444 1.12 0 .876-.679 1.6-1.515 1.6zm11.097 10.015h-2.61v-4.29c0-1.022-.02-2.333-1.36-2.333-1.359 0-1.567 1.11-1.567 2.26v4.363h-2.612V12.3h2.508v1.203h.036c.35-.693 1.202-1.424 2.475-1.424 2.646 0 3.133 1.824 3.133 4.193v4.841h-.003z" fill="#000"/></g><rect x=".5" y=".869" width="27.708" height="29.171" rx="13.854" stroke="#F9F9F9"/><defs><clipPath id="clip0_134_222"><path fill="#fff" transform="translate(7.895 7.912)" d="M0 0h12.614v15.085H0z"/></clipPath></defs></svg>