<svg width="29" height="31" fill="none" xmlns="http://www.w3.org/2000/svg"><rect x=".5" y=".869" width="27.708" height="29.171" rx="13.854" fill="#F3F3F3"/><g clip-path="url(#clip0_134_223)"><path d="M19.392 9.864c-1.31-1.38-3.053-2.138-4.907-2.138-3.825 0-6.937 3.271-6.937 7.291 0 1.284.319 2.539.925 3.646l-.984 3.776 3.678-1.014a6.653 6.653 0 003.315.886h.003c3.822 0 7.003-3.27 7.003-7.29 0-1.948-.787-3.778-2.096-5.157zm-4.907 11.22a5.545 5.545 0 01-2.937-.845l-.21-.131-2.18.6.58-2.236-.137-.23a6.27 6.27 0 01-.881-3.225c0-3.34 2.587-6.06 5.768-6.06 1.541 0 2.988.631 4.076 1.777 1.087 1.147 1.756 2.667 1.753 4.286 0 3.344-2.654 6.063-5.832 6.063zm3.163-4.54c-.172-.092-1.025-.532-1.184-.59-.16-.063-.275-.093-.391.091-.116.184-.447.591-.55.716-.1.122-.203.138-.375.046-1.019-.535-1.688-.956-2.36-2.168-.178-.321.179-.298.51-.995.056-.121.028-.226-.016-.318-.043-.092-.39-.989-.534-1.353-.14-.355-.284-.306-.39-.312-.1-.007-.216-.007-.332-.007a.629.629 0 00-.463.227c-.159.184-.606.624-.606 1.52 0 .897.622 1.764.707 1.885.087.122 1.221 1.961 2.962 2.753 1.1.499 1.531.541 2.081.456.335-.053 1.025-.44 1.169-.867.144-.427.144-.791.1-.867-.04-.082-.156-.128-.328-.217z" fill="#000"/></g><rect x=".5" y=".869" width="27.708" height="29.171" rx="13.854" stroke="#F9F9F9"/><defs><clipPath id="clip0_134_223"><path fill="#fff" transform="translate(7.489 7.726)" d="M0 0h14v14.713H0z"/></clipPath></defs></svg>