<svg width="29" height="31" fill="none" xmlns="http://www.w3.org/2000/svg"><rect x=".5" y=".869" width="27.708" height="29.171" rx="13.854" fill="#F3F3F3"/><g clip-path="url(#clip0_134_224)"><path d="M19.485 12.829c.009.116.009.233.009.35 0 3.552-2.664 7.645-7.533 7.645-1.5 0-2.894-.441-4.066-1.207.213.025.418.034.64.034a5.253 5.253 0 003.286-1.148 2.658 2.658 0 01-2.475-1.864 2.763 2.763 0 001.197-.05 2.678 2.678 0 01-2.124-2.637v-.033c.353.2.763.324 1.197.34a2.696 2.696 0 01-1.18-2.237c0-.5.13-.957.36-1.356a7.49 7.49 0 005.46 2.812 3.082 3.082 0 01-.066-.616c0-1.48 1.18-2.687 2.648-2.687.762 0 1.45.324 1.934.849a5.168 5.168 0 001.68-.65 2.673 2.673 0 01-1.163 1.481 5.248 5.248 0 001.524-.415 5.737 5.737 0 01-1.328 1.389z" fill="#000"/></g><rect x=".5" y=".869" width="27.708" height="29.171" rx="13.854" stroke="#F9F9F9"/><defs><clipPath id="clip0_134_224"><path fill="#fff" transform="translate(7.895 10.175)" d="M0 0h12.919v11.314H0z"/></clipPath></defs></svg>