<svg width="29" height="31" fill="none" xmlns="http://www.w3.org/2000/svg"><rect x=".5" y=".869" width="27.708" height="29.171" rx="13.854" fill="#F3F3F3"/><path d="M19.186 10.785l-1.81 8.918c-.137.63-.493.786-1 .49l-2.759-2.124-1.331 1.338c-.147.153-.27.282-.555.282l.199-2.934 5.114-4.826c.222-.207-.049-.322-.346-.115l-6.322 4.157-2.722-.89c-.592-.192-.602-.618.123-.914l10.646-4.283c.493-.193.924.115.764.9z" fill="#000"/><rect x=".5" y=".869" width="27.708" height="29.171" rx="13.854" stroke="#F9F9F9"/></svg>