<svg width="29" height="31" fill="none" xmlns="http://www.w3.org/2000/svg"><rect x=".5" y=".869" width="27.708" height="29.171" rx="13.854" fill="#F3F3F3"/><rect y=".369" width="28.708" height="30.171" rx="14.354" fill="#F3F3F3"/><g clip-path="url(#clip0_134_227)"><path d="M22.155 11.244a2.048 2.048 0 00-1.415-1.475c-1.248-.348-6.252-.348-6.252-.348s-5.004 0-6.252.348a2.048 2.048 0 00-1.415 1.475c-.334 1.3-.334 4.014-.334 4.014s0 2.715.334 4.015c.184.718.726 1.26 1.415 1.451 1.248.349 6.252.349 6.252.349s5.004 0 6.252-.349a2.017 2.017 0 001.415-1.45c.334-1.302.334-4.016.334-4.016s0-2.713-.334-4.014zm-9.304 6.479v-4.928l4.183 2.464-4.183 2.464z" fill="#000"/></g><rect x=".5" y=".869" width="27.708" height="29.171" rx="13.854" stroke="#F9F9F9"/><defs><clipPath id="clip0_134_227"><path fill="#fff" transform="translate(6.46 9.42)" d="M0 0h16.057v11.652H0z"/></clipPath></defs></svg>