<svg width="75" height="75" fill="none" xmlns="http://www.w3.org/2000/svg"><g clip-path="url(#clip0_134_269)"><path d="M74.99 10.376C74.99 4.655 70.337 0 64.616 0c-4.97 0-9.133 3.514-10.14 8.187H40.082a7.276 7.276 0 00-5.179 2.145L2.158 43.07a7.276 7.276 0 00-2.146 5.178 7.28 7.28 0 002.145 5.18l19.426 19.426A7.276 7.276 0 0026.762 75a7.276 7.276 0 005.179-2.145l11.329-11.33a1.465 1.465 0 00-2.072-2.071L29.87 70.783a4.4 4.4 0 01-6.215 0L4.23 51.357a4.365 4.365 0 01-1.287-3.107c0-1.174.457-2.278 1.287-3.108l32.747-32.738a4.365 4.365 0 013.107-1.287H54.27a10.297 10.297 0 003.01 6.595 1.465 1.465 0 102.071-2.071 7.39 7.39 0 01-2.144-4.524h2.303a4.4 4.4 0 014.395 4.394v19.417a4.365 4.365 0 01-1.287 3.108L50.52 50.132a1.465 1.465 0 002.072 2.072l12.096-12.097a7.276 7.276 0 002.145-5.178V20.512a10.338 10.338 0 008.158-10.136zm-8.157 7.111v-1.976c0-4.038-3.285-7.324-7.324-7.324h-2.011c.937-3.04 3.773-5.257 7.117-5.257 4.106 0 7.446 3.34 7.446 7.446a7.419 7.419 0 01-5.228 7.111z" fill="url(#paint0_linear_134_269)"/><path d="M20.21 48.17a1.465 1.465 0 00-2.07-2.07l-3.526 3.526a1.465 1.465 0 000 2.072l8.7 8.7a1.46 1.46 0 002.071 0c.572-.572.572-1.5 0-2.072l-3.396-3.396 2.21-2.21a1.465 1.465 0 00-2.072-2.072l-2.21 2.21-2.196-2.196 2.49-2.49z" fill="url(#paint1_linear_134_269)"/><path d="M37.503 47.675a1.465 1.465 0 00.092-2.926l-4.843-.309c.407-.7.638-1.491.664-2.315.04-1.295-.428-2.5-1.318-3.39-1.818-1.817-4.833-1.76-6.722.128l-2.312 2.312-.002.002v.001a1.465 1.465 0 000 2.072l8.7 8.7a1.46 1.46 0 002.071 0c.572-.572.572-1.5 0-2.072l-2.6-2.6 6.175.394.095.003zm-10.055-6.74c.733-.734 1.914-.792 2.578-.128.313.313.477.748.462 1.227-.016.5-.23.993-.59 1.352-.293.293-.8.803-1.261 1.27-.457-.452-.952-.943-1.234-1.225a982.6 982.6 0 00-1.229-1.223l1.274-1.273z" fill="url(#paint2_linear_134_269)"/><path d="M51.767 34.015l3.666-3.666a1.465 1.465 0 00-2.072-2.072l-2.63 2.63-2.279-2.278 2.36-2.36a1.465 1.465 0 00-2.072-2.072l-2.36 2.36-2.278-2.279 2.63-2.63a1.465 1.465 0 00-2.071-2.072l-3.666 3.666a1.465 1.465 0 000 2.072l4.35 4.35v.001l4.35 4.35a1.465 1.465 0 002.072 0z" fill="url(#paint3_linear_134_269)"/><path d="M42.238 42.94c.389 0 .761-.155 1.036-.43l3.666-3.666a1.465 1.465 0 00-2.072-2.071l-2.63 2.63-2.279-2.279 2.36-2.36a1.465 1.465 0 00-2.071-2.071l-2.36 2.36-2.279-2.28 2.63-2.63a1.465 1.465 0 00-2.071-2.07l-3.666 3.665a1.465 1.465 0 000 2.072l8.7 8.7c.275.275.648.43 1.036.43z" fill="url(#paint4_linear_134_269)"/><path d="M46.895 54.364c-.386 0-.764.157-1.036.43-.272.272-.43.65-.43 1.035 0 .385.157.763.43 1.035.272.273.65.43 1.035.43.386 0 .764-.157 1.036-.43.273-.272.43-.65.43-1.035 0-.385-.157-.763-.43-1.036a1.476 1.476 0 00-1.035-.429z" fill="url(#paint5_linear_134_269)"/></g><defs><linearGradient id="paint0_linear_134_269" x1="37.502" y1="0" x2="37.502" y2="75" gradientUnits="userSpaceOnUse"><stop stop-color="#03BAFE"/><stop offset="1" stop-color="#0068FF"/></linearGradient><linearGradient id="paint1_linear_134_269" x1="19.998" y1="45.67" x2="19.998" y2="60.826" gradientUnits="userSpaceOnUse"><stop stop-color="#03BAFE"/><stop offset="1" stop-color="#0068FF"/></linearGradient><linearGradient id="paint2_linear_134_269" x1="30.799" y1="37.409" x2="30.799" y2="52.379" gradientUnits="userSpaceOnUse"><stop stop-color="#03BAFE"/><stop offset="1" stop-color="#0068FF"/></linearGradient><linearGradient id="paint3_linear_134_269" x1="48.214" y1="19.148" x2="48.214" y2="34.444" gradientUnits="userSpaceOnUse"><stop stop-color="#03BAFE"/><stop offset="1" stop-color="#0068FF"/></linearGradient><linearGradient id="paint4_linear_134_269" x1="39.721" y1="27.643" x2="39.721" y2="42.939" gradientUnits="userSpaceOnUse"><stop stop-color="#03BAFE"/><stop offset="1" stop-color="#0068FF"/></linearGradient><linearGradient id="paint5_linear_134_269" x1="46.895" y1="54.364" x2="46.895" y2="57.294" gradientUnits="userSpaceOnUse"><stop stop-color="#03BAFE"/><stop offset="1" stop-color="#0068FF"/></linearGradient><clipPath id="clip0_134_269"><path fill="#fff" d="M0 0h75v75H0z"/></clipPath></defs></svg>