<svg width="100" height="100" fill="none" xmlns="http://www.w3.org/2000/svg"><path d="M87.222 0H12.778C5.732 0 0 5.732 0 12.778v74.444C0 94.268 5.732 100 12.778 100h74.444C94.268 100 100 94.268 100 87.222V12.778C100 5.732 94.268 0 87.222 0zm6.888 87.222a6.896 6.896 0 01-6.888 6.888H12.778a6.896 6.896 0 01-6.888-6.888V76.478l19.386-16.494a1.903 1.903 0 012.453-.015l12.144 10.084c1.17.972 2.89.892 3.965-.185l28.854-28.897a1.888 1.888 0 011.447-.557 1.89 1.89 0 011.382.702L94.11 64.005v23.217zm0-32.56l-14.017-17.26a7.808 7.808 0 00-5.653-2.871 7.816 7.816 0 00-5.917 2.278L41.57 63.805l-10.076-8.367a7.783 7.783 0 00-10.034.06L5.89 68.745V12.778a6.896 6.896 0 016.888-6.888h74.444a6.896 6.896 0 016.888 6.888v41.883z" fill="#D1D1D1"/></svg>